<svg xmlns="http://www.w3.org/2000/svg" width="800" height="404" viewBox="0 0 800 404" font-family="Helvetica, Arial, sans-serif" font-size="12">
<text x="150" y="22" font-size="14" font-weight="bold">Corpus flows touching each cluster (n = 41 flows, 952 actions); dark = certain, light = with rule-dependent alternatives</text>
<text x="142" y="60" text-anchor="end">#1</text>
<rect x="150" y="44" width="510.0" height="22" fill="#c7e9c0"/>
<rect x="150" y="44" width="510.0" height="22" fill="#238b45"/>
<text x="666.0" y="60">40 / 40 flows · 511 actions</text>
<text x="142" y="94" text-anchor="end">#2</text>
<rect x="150" y="78" width="191.2" height="22" fill="#c7e9c0"/>
<rect x="150" y="78" width="127.5" height="22" fill="#238b45"/>
<text x="347.2" y="94">10 / 15 flows · 13 actions</text>
<text x="142" y="128" text-anchor="end">#3</text>
<rect x="150" y="112" width="204.0" height="22" fill="#c7e9c0"/>
<rect x="150" y="112" width="140.2" height="22" fill="#238b45"/>
<text x="360.0" y="128">11 / 16 flows · 11 actions</text>
<text x="142" y="162" text-anchor="end">#4</text>
<rect x="150" y="146" width="357.0" height="22" fill="#c7e9c0"/>
<rect x="150" y="146" width="344.2" height="22" fill="#238b45"/>
<text x="513.0" y="162">27 / 28 flows · 92 actions</text>
<text x="142" y="196" text-anchor="end">#5</text>
<rect x="150" y="180" width="63.8" height="22" fill="#c7e9c0"/>
<rect x="150" y="180" width="51.0" height="22" fill="#238b45"/>
<text x="219.8" y="196">4 / 5 flows · 4 actions</text>
<text x="142" y="230" text-anchor="end">#6</text>
<rect x="150" y="214" width="0.0" height="22" fill="#c7e9c0"/>
<rect x="150" y="214" width="0.0" height="22" fill="#238b45"/>
<text x="156.0" y="230">0 / 0 flows · 0 actions</text>
<text x="142" y="264" text-anchor="end">#7</text>
<rect x="150" y="248" width="510.0" height="22" fill="#c7e9c0"/>
<rect x="150" y="248" width="471.8" height="22" fill="#238b45"/>
<text x="666.0" y="264">37 / 40 flows · 263 actions</text>
<text x="142" y="298" text-anchor="end">#8</text>
<rect x="150" y="282" width="0.0" height="22" fill="#c7e9c0"/>
<rect x="150" y="282" width="0.0" height="22" fill="#238b45"/>
<text x="156.0" y="298">0 / 0 flows · 0 actions</text>
<text x="142" y="332" text-anchor="end">#9</text>
<rect x="150" y="316" width="242.2" height="22" fill="#c7e9c0"/>
<rect x="150" y="316" width="242.2" height="22" fill="#238b45"/>
<text x="398.2" y="332">19 / 19 flows · 31 actions</text>
<text x="142" y="366" text-anchor="end">#10</text>
<rect x="150" y="350" width="63.8" height="22" fill="#c7e9c0"/>
<rect x="150" y="350" width="38.2" height="22" fill="#238b45"/>
<text x="219.8" y="366">3 / 5 flows · 5 actions</text>
</svg>
